<?xml version="1.0" encoding="UTF-8" standalone="no"?>
<!-- Created with Inkscape (http://www.inkscape.org/) -->

<svg
   width="71.934334mm"
   height="100.81161mm"
   viewBox="0 0 71.934334 100.81161"
   version="1.1"
   id="svg1"
   xml:space="preserve"
   inkscape:version="1.3 (0e150ed6c4, 2023-07-21)"
   sodipodi:docname="jerry.svg"
   xmlns:inkscape="http://www.inkscape.org/namespaces/inkscape"
   xmlns:sodipodi="http://sodipodi.sourceforge.net/DTD/sodipodi-0.dtd"
   xmlns="http://www.w3.org/2000/svg"
   xmlns:svg="http://www.w3.org/2000/svg"><sodipodi:namedview
     id="namedview1"
     pagecolor="#ffffff"
     bordercolor="#000000"
     borderopacity="0.25"
     inkscape:showpageshadow="2"
     inkscape:pageopacity="0.0"
     inkscape:pagecheckerboard="0"
     inkscape:deskcolor="#d1d1d1"
     inkscape:document-units="mm"
     inkscape:zoom="0.71713664"
     inkscape:cx="350.70025"
     inkscape:cy="520.82125"
     inkscape:window-width="1920"
     inkscape:window-height="1011"
     inkscape:window-x="0"
     inkscape:window-y="0"
     inkscape:window-maximized="1"
     inkscape:current-layer="layer1" /><defs
     id="defs1" /><g
     inkscape:label="Layer 1"
     inkscape:groupmode="layer"
     id="layer1"
     transform="translate(-12.094498,-10.54963)"><path
       style="fill:#000000"
       d="m 17.120058,111.1979 c -1.97299,-0.60674 -3.60343,-2.05973 -4.47542,-3.98833 -0.53272,-1.17822 -0.53839,-1.56157 -0.54414,-36.791284 l -0.006,-35.60066 0.68481,-1.37423 c 0.84325,-1.69219 2.32656,-2.99645 4.29843,-3.77957 0.82448,-0.32744 1.54042,-0.62661 1.59098,-0.66482 0.0506,-0.0382 -0.78287,-1.62105 -1.85208,-3.51741 -2.0255,-3.592436 -1.95143,-3.525452 -3.32693,-3.008734 -0.39575,0.148664 -0.99312,-1.06925 -0.7874,-1.605352 0.0815,-0.212419 0.75201,-0.586768 1.48999,-0.831886 1.17592,-0.390579 1.34179,-0.534909 1.34179,-1.167586 0,-0.973575 0.59374,-1.750169 1.16925,-1.529326 0.24926,0.09565 0.88953,-0.05174 1.42732,-0.328565 0.74934,-0.385712 11.94457,-2.731531 12.78952,-2.67988 0.214,0.01308 0.75349,1.522888 0.75349,2.108709 0,0.270515 -0.41985,0.576832 -1.12448,0.820414 -0.95534,0.330246 -1.13474,0.508112 -1.19269,1.182467 -0.25107,2.921914 -0.29681,3.028001 -1.66985,3.872836 -0.71755,0.441513 -1.30465,0.848043 -1.30465,0.903383 0,0.27393 0.91413,1.97066 1.06171,1.97066 0.0935,0 1.24267,-0.46527 2.55376,-1.03392 1.3111,-0.56865 3.02827,-1.11649 3.81594,-1.21741 l 1.43213,-0.18351 1.98131,-4.537268 c 2.10544,-4.821542 3.00021,-6.130028 4.87981,-7.136119 1.07361,-0.574669 1.11317,-0.57593 15.36388,-0.489667 16.79271,0.10165 21.59098,0.297154 22.80798,0.929306 1.11536,0.579353 2.56213,2.088412 3.16604,3.302354 0.46277,0.930214 0.48753,2.974411 0.55665,45.952684 0.0666,41.424944 0.0375,45.071244 -0.36813,46.144294 -0.54842,1.45066 -1.97749,3.05873 -3.39033,3.81498 l -1.07638,0.57615 -30.69166,0.0456 c -16.88042,0.0251 -30.99009,-0.0462 -31.35484,-0.15833 z m 9.3076,-12.124274 c 0.21564,-0.25466 2.21458,-3.32052 4.44209,-6.81302 2.2275,-3.4925 4.29293,-6.61789 4.58984,-6.94531 0.53408,-0.58897 0.61506,-0.59532 7.59004,-0.59532 h 7.0502 l 3.81774,2.59319 c 5.28903,3.59255 14.3471,9.80055 16.23088,11.12391 2.06905,1.45352 2.59154,1.43063 3.58864,-0.1572 0.90441,-1.44022 0.99588,-2.19371 0.33624,-2.76966 -0.25466,-0.22235 -3.38005,-2.33886 -6.94531,-4.70336 -3.56526,-2.36449 -6.63112,-4.48597 -6.81302,-4.71438 -0.2542,-0.31921 -0.33073,-3.34904 -0.33073,-13.0946 v -12.6793 l 1.94923,-3.21128 c 6.27752,-10.34196 9.47944,-15.61549 10.57331,-17.41411 1.58708,-2.60963 1.59447,-3.15945 0.0546,-4.06189 -2.12486,-1.24525 -1.69449,-1.73455 -8.15245,9.26889 -1.53731,2.61938 -3.1011,5.20899 -3.47508,5.75469 l -0.67997,0.99219 h -7.06155 -7.06156 l -11.73378,-5.80969 c -6.64063,-3.28794 -11.90588,-5.74364 -12.13027,-5.65754 -0.21806,0.0837 -0.69856,0.66762 -1.06778,1.29765 -0.53441,0.91189 -0.61379,1.25299 -0.38926,1.67253 0.24223,0.4526 2.37218,1.70263 8.61522,5.05611 5.53651,2.97396 6.55867,3.60737 6.78594,4.20515 0.13693,0.36015 0.20992,5.31038 0.16779,11.37984 l -0.0746,10.7424 -6.69566,11.23344 c -4.76162,7.98866 -6.65511,11.38957 -6.55526,11.77396 0.13624,0.52453 2.10834,1.98309 2.69273,1.99154 0.15934,0.002 0.46615,-0.20417 0.68179,-0.45883 z m 15.03165,-19.07244 c -1.82045,-0.95861 -1.84708,-1.1322 -1.84754,-12.04226 -4.7e-4,-11.00311 0.0216,-11.14487 1.87754,-12.09173 0.90946,-0.46397 1.58178,-0.51597 6.67133,-0.51597 5.44389,0 5.69428,0.0229 6.55898,0.60059 1.80284,1.20437 1.8242,1.34426 1.82466,11.94973 5.7e-4,13.29294 0.47923,12.5851 -8.51037,12.5851 -4.97168,0 -5.76375,-0.0585 -6.5746,-0.48546 z m 19.22025,-57.619912 c 1.23894,-0.515416 6.71304,-5.818947 6.71304,-6.503862 0,-0.4541 -0.5923,-0.478264 -11.72338,-0.478264 -8.97441,0 -11.8236,0.07755 -12.15074,0.330729 -0.34421,0.266388 -2.05504,5.97062 -2.05504,6.85189 0,0.124139 4.09311,0.225719 9.09581,0.225719 7.763,0 9.24593,-0.0624 10.12031,-0.426212 z"
       id="path1" /></g></svg>
